<?xml version="1.0" encoding="UTF-8"?>
<svg width="22px" height="26px" viewBox="0 0 22 26" version="1.1" xmlns="http://www.w3.org/2000/svg" xmlns:xlink="http://www.w3.org/1999/xlink">
    <!-- Generator: Sketch 48.2 (47327) - http://www.bohemiancoding.com/sketch -->
    <title>Outreach Icon Active</title>
    <desc>Created with Sketch.</desc>
    <defs></defs>
    <g id="Outreach---Active" stroke="none" stroke-width="1" fill="none" fill-rule="evenodd" transform="translate(-13.000000, -6.000000)">
        <path d="M18.5,17 C15.4624339,17 13,14.5375661 13,11.5 C13,8.46243388 15.4624339,6 18.5,6 C21.5375661,6 24,8.46243388 24,11.5 C24,14.5375661 21.5375661,17 18.5,17 Z M30.5,21 C28.0147186,21 26,18.9852814 26,16.5 C26,14.0147186 28.0147186,12 30.5,12 C32.9852814,12 35,14.0147186 35,16.5 C35,18.9852814 32.9852814,21 30.5,21 Z M18.5,19 C21.5375661,19 24,21.4624339 24,24.5 L24,31 C24,31.5522847 23.5522847,32 23,32 L14,32 C13.4477153,32 13,31.5522847 13,31 L13,24.5 C13,21.4624339 15.4624339,19 18.5,19 Z M30.5,23 C32.9852814,23 35,25.0147186 35,27.5 L35,31 C35,31.5522847 34.5522847,32 34,32 L27,32 C26.4477153,32 26,31.5522847 26,31 L26,27.5 C26,25.0147186 28.0147186,23 30.5,23 Z" id="Outreach-Icon-Active" fill="#014F8F"></path>
    </g>
</svg>