<?xml version="1.0" encoding="UTF-8"?>
<svg width="31px" height="26px" viewBox="0 0 31 26" version="1.1" xmlns="http://www.w3.org/2000/svg" xmlns:xlink="http://www.w3.org/1999/xlink">
    <!-- Generator: Sketch 48.2 (47327) - http://www.bohemiancoding.com/sketch -->
    <title>Me</title>
    <desc>Created with Sketch.</desc>
    <defs></defs>
    <g id="Task" stroke="none" stroke-width="1" fill="none" fill-rule="evenodd" transform="translate(-324.000000, -98.000000)">
        <g id="Me" transform="translate(324.000000, 98.000000)">
            <circle id="Path" fill-opacity="0" fill="#D8D8D8" cx="15.5" cy="15.5" r="15.5"></circle>
            <path d="M4.12261322,26.0265055 C1.56387059,23.2622643 0,19.5637629 0,15.5 C0,6.93958638 6.93958638,0 15.5,0 C24.0604136,0 31,6.93958638 31,15.5 C31,19.538063 29.4558472,23.2154699 26.9258129,25.9739491 C26.7838237,25.8946604 26.63428,25.8171027 26.4836536,25.7443656 C26.2370745,25.6252932 25.9875942,25.5337307 25.7636049,25.4245495 C25.5674948,25.3289578 25.3625054,25.1949122 25.1520615,25.0826162 C24.8813211,24.9381452 24.6015527,24.8141481 24.3200494,24.6905074 C24.0509702,24.5723235 23.7803058,24.4578417 23.5144253,24.3792228 C23.3618196,24.3340984 23.2107898,24.3166789 23.0625404,24.2766901 C22.7013799,24.1792704 22.3567206,24.1347767 22.0459749,24.1139371 C21.8825559,24.1029777 21.7285163,24.0854528 21.5863884,24.0433187 C20.9637659,23.858741 20.3102909,23.7029737 19.6685078,23.5417122 C19.4047402,23.475435 18.9864601,23.1088573 18.9225614,23.024087 L18.9189486,23.0193532 C18.8343605,22.6923431 18.7027407,22.1531095 18.6595272,21.8073929 C18.6200574,21.4916256 18.6023265,20.9717825 18.5943703,20.5798969 C18.6013962,20.5719707 18.6088495,20.5625781 18.6169549,20.5510748 C18.777514,20.3232052 18.9594421,19.9654323 19.1608104,19.6746635 C19.2999929,19.4736887 19.4873018,18.4592152 19.7575758,17.3997522 C19.8398836,17.0771091 20.2611856,16.9320692 20.4259531,16.6651454 C20.7408585,16.1549976 20.7732218,15.5676295 20.8556242,15.1959318 C20.9033654,14.9805825 21.1362843,13.8901348 21.0227185,13.4897483 C20.9807063,13.3416306 20.8515076,13.2749228 20.7240007,13.2718484 C20.5702788,13.2681419 20.4428866,13.3117358 20.4498237,13.1579904 C20.455192,13.0390136 20.5459591,13.0157888 20.5723343,12.8981273 C20.6333157,12.6260849 20.6612808,12.3559198 20.7182884,12.0800565 C20.8705456,11.3432749 20.9316973,10.5658461 20.8317534,9.60344145 C20.787542,9.17771047 20.8347103,8.83753916 20.7830564,8.56143391 C20.5558201,7.34679064 20.1684671,7.37201744 19.8769287,6.80719627 C19.6874518,6.44010723 19.2399224,6.28862456 18.7909523,6.19045589 C18.3807459,6.100763 17.9693368,6.05949069 17.7524439,5.85931655 C17.2969512,5.43893453 16.6066543,5.31428571 15.5086059,5.31428571 C14.4105575,5.31428571 14.3556621,5.47766645 13.6944389,5.74083159 C13.2221215,5.92881266 12.8828379,5.90671054 12.4292961,6.33325641 C12.1054875,6.63779124 10.7570063,7.30764311 10.5435174,7.77877299 C9.65939757,9.72985895 10.3525345,11.6528143 10.4957762,13.2527784 C10.5014707,13.3163843 10.001218,13.2969168 9.97062258,13.5608393 C9.92102655,13.9886651 10.1138463,14.2954461 10.2809406,14.8641739 C10.448035,15.4329017 10.4864699,15.7199476 10.7822236,16.1912055 C10.947979,16.4553226 11.3312478,16.4608813 11.3312478,16.6651454 C11.3312478,17.2338732 11.349323,17.7050779 11.5222127,18.2054499 C11.8866372,19.2601563 12.0812578,19.3768431 12.4292961,20.0064214 C12.4355156,20.017672 12.4417243,20.0288335 12.4479227,20.0399066 C12.4270929,20.2651976 12.3483127,21.0997843 12.2860725,21.5230289 C12.2278733,21.9187938 12.0974027,22.5618873 12.0177918,22.9424852 C11.9244596,22.9848566 11.8363417,23.1286152 11.7045747,23.2256122 C11.5135667,23.366218 11.2641112,23.4581092 11.1139194,23.5065013 C10.696899,23.640866 10.2648115,23.7554216 9.85453625,23.8428528 C9.33532506,23.9534988 9.00318536,23.9755438 8.5134487,24.0596647 C8.15710957,24.1208722 7.63870423,24.2260953 7.28838433,24.3677262 C7.07708478,24.4531525 6.80124215,24.5724302 6.60233908,24.6724769 C6.27298717,24.8381385 6.02985472,24.9923484 5.72181369,25.1566761 C5.38343308,25.3371887 5.03040513,25.6002122 4.69970208,25.7688146 C4.49598684,25.8726748 4.30074311,25.9458921 4.12261322,26.0265055 Z" id="Combined-Shape" fill="#FFFFFF"></path>
        </g>
    </g>
</svg>