<?xml version="1.0" encoding="UTF-8"?>
<svg width="18px" height="27px" viewBox="0 0 18 27" version="1.1" xmlns="http://www.w3.org/2000/svg" xmlns:xlink="http://www.w3.org/1999/xlink">
    <!-- Generator: Sketch 48.2 (47327) - http://www.bohemiancoding.com/sketch -->
    <title>Scout Icon Inactive</title>
    <desc>Created with Sketch.</desc>
    <defs></defs>
    <g id="Scout---Inactive" stroke="none" stroke-width="1" fill="none" fill-rule="evenodd" transform="translate(-15.000000, -5.000000)">
        <path d="M32.8330203,25 C32.8330203,28.8659932 29.6990135,32 25.8330203,32 L21.9277998,32 C19.5775068,32.0000014 16.418055,29.0932336 15.9825716,25.5879092 C15.7847229,23.9953709 15.8732045,23.0819677 15.9002043,22.5449281 C15.9272041,22.0078886 15.9825716,21.2262655 16.1207168,20.6843217 C23.3364845,18.6279963 25.4695339,18.7345688 25.7575804,20.0976105 C25.9731534,21.117706 25.1996765,21.7279447 23.4036259,22.1839912 C22.9644733,22.2954992 21.5416897,22.5857778 21.554256,22.582955 C21.0187936,22.7032364 20.7206277,22.8036471 20.5135361,22.9809485 C19.8345273,23.5622815 19.8345273,24.4707853 20.3914568,25.5879092 C20.5144425,25.8346016 20.8123517,25.9339933 21.0568556,25.8099068 C21.3013595,25.6858203 21.3998695,25.3852446 21.2768838,25.1385522 C20.901583,24.3857503 20.901583,23.960227 21.1548045,23.7434315 C21.1898483,23.7134288 21.4050661,23.6409518 21.7696454,23.559056 C21.7369292,23.5664051 23.1793419,23.2721217 23.6455146,23.1537529 C25.9010354,22.5810395 27.0964876,21.637881 26.7269201,19.8890801 C26.2641814,17.6993918 23.2369361,17.711167 16.1207168,19.6388817 C16.1434839,19.5180867 16.2048774,18.0249104 16.399191,16.5 L16.399191,9.07820039 C16.399191,8.04839259 17.2340151,7.21356842 18.2638229,7.21356842 C19.2936307,7.21356842 20.1284549,8.04839259 20.1284549,9.07820039 L20.1284549,16.0386714 C20.1284549,16.2803258 20.3243545,16.4762255 20.566009,16.4762255 C20.8076635,16.4762255 21.0035631,16.2803258 21.0035631,16.0386714 L21.0035631,6.78518076 C21.0035631,5.79925265 21.8028158,5 22.7887439,5 C23.774672,5 24.5739246,5.79925265 24.5739246,6.78518076 L24.5739246,16.0407937 C24.5739246,16.281276 24.7688741,16.4762255 25.0093564,16.4762255 C25.2498388,16.4762255 25.4447882,16.281276 25.4447882,16.0407937 L25.4447882,9.04721245 C25.4447882,8.0963134 26.2156442,7.3254574 27.1665433,7.3254574 C28.1174423,7.3254574 28.8882983,8.0963134 28.8882983,9.04721245 L28.8882983,17.3479614 C28.8857264,18.3098414 28.8844405,18.8237996 28.8844405,18.889836 C28.8844405,20.3239098 30.0690121,21.1743094 31.3317856,21.1743094 C31.9044856,21.1743094 32.4280076,20.9637533 32.8291625,20.6158302 L32.8330203,25 Z M31.3222408,12.3000002 C32.2488416,12.3000002 33,13.0511586 33,13.9777594 L33,18.622241 C33,19.5488418 32.2488416,20.3000002 31.3222408,20.3000002 C30.39564,20.3000002 29.6444816,19.5488418 29.6444816,18.622241 L29.6444816,13.9777594 C29.6444816,13.0511586 30.39564,12.3000002 31.3222408,12.3000002 Z" id="Scout-Icon-Inactive" fill="#8E8E93"></path>
    </g>
</svg>